<svg width="16" height="16" viewBox="0 0 16 16" fill="none" xmlns="http://www.w3.org/2000/svg">
<g clip-path="url(#clip0_215_7519)">
<path d="M6.77486 7.30777C6.80407 7.30766 6.83328 7.30756 6.86337 7.30745C6.95916 7.30716 7.05496 7.30709 7.15075 7.30706C7.21796 7.30696 7.28518 7.30685 7.35239 7.30674C7.49305 7.30656 7.63371 7.3065 7.77437 7.30652C7.95358 7.30652 8.13278 7.30609 8.31198 7.30556C8.45078 7.30521 8.58958 7.30514 8.72838 7.30516C8.79439 7.30512 8.86041 7.30499 8.92642 7.30474C9.72588 7.30207 10.4459 7.39201 11.0422 7.97869C11.0695 8.00628 11.0969 8.03388 11.125 8.06231C11.1459 8.08249 11.1667 8.10267 11.1882 8.12346C11.6798 8.63398 11.7545 9.32976 11.755 10.0037C11.7552 10.051 11.7553 10.0984 11.7555 10.1457C11.7559 10.2736 11.7561 10.4015 11.7563 10.5294C11.7563 10.6095 11.7565 10.6895 11.7566 10.7695C11.757 11.0203 11.7573 11.271 11.7575 11.5218C11.7576 11.8106 11.7581 12.0994 11.7591 12.3882C11.7597 12.612 11.76 12.8358 11.7601 13.0596C11.7601 13.193 11.7603 13.3265 11.7609 13.4599C11.7614 13.5854 11.7614 13.7108 11.7612 13.8363C11.7611 13.8822 11.7613 13.9281 11.7616 13.974C11.765 14.5131 11.765 14.5131 11.584 14.699C11.4047 14.8074 11.2438 14.8214 11.0401 14.8205C11.0131 14.8206 10.986 14.8207 10.9582 14.8208C10.8678 14.8211 10.7774 14.821 10.687 14.8209C10.6221 14.821 10.5572 14.8212 10.4923 14.8214C10.3162 14.8218 10.1401 14.8218 9.96394 14.8217C9.81685 14.8217 9.66976 14.8219 9.52268 14.822C9.17564 14.8223 8.82861 14.8224 8.48158 14.8222C8.12368 14.822 7.76578 14.8224 7.40788 14.823C7.1005 14.8236 6.79312 14.8238 6.48573 14.8237C6.30219 14.8236 6.11866 14.8237 5.93512 14.8241C5.76249 14.8245 5.58988 14.8245 5.41725 14.8241C5.35396 14.824 5.29067 14.8241 5.22738 14.8243C5.14085 14.8247 5.05434 14.8244 4.96781 14.824C4.94289 14.8242 4.91796 14.8245 4.89229 14.8247C4.69302 14.8228 4.51119 14.7903 4.36328 14.6463C4.26938 14.491 4.24218 14.3514 4.24206 14.1713C4.24188 14.1309 4.24171 14.0906 4.24152 14.0489C4.24165 14.0046 4.24177 13.9602 4.24191 13.9158C4.24182 13.8688 4.24171 13.8217 4.24158 13.7747C4.24129 13.6472 4.2414 13.5196 4.2416 13.3921C4.24176 13.2582 4.24161 13.1243 4.24151 12.9905C4.2414 12.7654 4.24155 12.5403 4.24185 12.3152C4.24219 12.056 4.24208 11.7967 4.24173 11.5374C4.24145 11.3142 4.24141 11.091 4.24157 10.8677C4.24167 10.7347 4.24168 10.6017 4.24148 10.4686C4.24129 10.3432 4.24142 10.2179 4.24178 10.0925C4.24186 10.0468 4.24184 10.0011 4.2417 9.95547C4.23966 9.21736 4.38624 8.55896 4.91638 8.02007C4.95777 7.9791 4.95777 7.9791 4.99999 7.93731C5.02018 7.91644 5.04036 7.89557 5.06115 7.87407C5.51988 7.43234 6.16087 7.30745 6.77486 7.30777Z" fill="#727A90"/>
<path d="M10.0215 2.03698C10.5942 2.62793 10.8006 3.37749 10.7895 4.18261C10.7709 4.78027 10.5291 5.37102 10.125 5.81237C10.1097 5.83162 10.0945 5.85088 10.0787 5.87072C9.67224 6.38309 8.98391 6.69002 8.34821 6.77402C7.62771 6.85036 6.90069 6.67934 6.3203 6.23424C6.27585 6.198 6.23157 6.16156 6.18749 6.12487C6.1686 6.11017 6.1497 6.09546 6.13024 6.08031C5.66748 5.70948 5.29895 5.03395 5.22483 4.44321C5.15251 3.63139 5.29305 2.87606 5.8153 2.2318C5.88502 2.15191 5.95688 2.07545 6.03124 1.99987C6.05501 1.9757 6.07877 1.95153 6.10326 1.92663C7.22695 0.850829 8.94434 1.02092 10.0215 2.03698Z" fill="#727A90"/>
<path d="M12.4375 8.53115C12.6509 8.52794 12.8642 8.52577 13.0776 8.52428C13.15 8.52366 13.2223 8.52281 13.2947 8.52172C13.8079 8.51418 14.2908 8.52148 14.7559 8.76747C14.7762 8.77804 14.7966 8.7886 14.8176 8.79949C15.3363 9.08079 15.708 9.53942 15.9062 10.0936C15.9144 10.1163 15.9225 10.139 15.9309 10.1624C16.0323 10.5002 16.0142 10.8478 16.0135 11.1973C16.0137 11.2681 16.0139 11.3389 16.014 11.4097C16.0143 11.5576 16.0143 11.7054 16.0139 11.8533C16.0136 12.042 16.0142 12.2308 16.0151 12.4196C16.0157 12.5656 16.0157 12.7116 16.0155 12.8577C16.0155 12.9273 16.0157 12.9968 16.0161 13.0664C16.0186 13.5951 15.9773 13.9943 15.6074 14.4003C15.5823 14.4228 15.5571 14.4454 15.5312 14.4686C15.4984 14.4996 15.4984 14.4996 15.4648 14.5311C15.0671 14.8078 14.6306 14.822 14.1616 14.8185C14.1152 14.8184 14.0688 14.8183 14.0224 14.8182C13.9016 14.818 13.7807 14.8174 13.6599 14.8167C13.5361 14.816 13.4123 14.8158 13.2885 14.8154C13.0465 14.8148 12.8045 14.8137 12.5625 14.8124C12.5676 14.7758 12.5726 14.7393 12.5779 14.7016C12.5931 14.5789 12.5978 14.4587 12.5981 14.335C12.5982 14.3135 12.5983 14.2921 12.5984 14.27C12.5987 14.1989 12.5987 14.1278 12.5988 14.0567C12.5989 14.0053 12.5991 13.954 12.5993 13.9027C12.5997 13.7638 12.5999 13.6249 12.6 13.486C12.6001 13.3991 12.6002 13.3121 12.6004 13.2251C12.6008 12.9523 12.6011 12.6796 12.6012 12.4068C12.6014 12.0931 12.6019 11.7794 12.6028 11.4656C12.6035 11.2224 12.6038 10.9792 12.6038 10.7359C12.6039 10.591 12.6041 10.4461 12.6046 10.3011C12.6051 10.1646 12.6052 10.0281 12.6049 9.89152C12.6049 9.84178 12.605 9.79204 12.6053 9.7423C12.6072 9.41951 12.5744 9.12702 12.5 8.8124C12.4876 8.75577 12.4752 8.69913 12.4629 8.64247C12.4545 8.60574 12.4461 8.569 12.4375 8.53115Z" fill="#727A90"/>
<path d="M2.81249 8.52361C2.88549 8.52424 2.95849 8.52481 3.03149 8.52532C3.2085 8.52668 3.38549 8.52876 3.56249 8.53143C3.5495 8.58514 3.5495 8.58514 3.53625 8.63995C3.52481 8.68776 3.51338 8.73557 3.50195 8.78338C3.49625 8.80688 3.49055 8.83039 3.48467 8.85461C3.47636 8.8895 3.47636 8.8895 3.46789 8.9251C3.46028 8.95677 3.46028 8.95677 3.45252 8.98907C3.41718 9.16219 3.40233 9.32998 3.40227 9.50655C3.40223 9.52812 3.40218 9.5497 3.40213 9.57193C3.402 9.64365 3.4021 9.71537 3.4022 9.78709C3.40216 9.83875 3.4021 9.89041 3.40203 9.94207C3.40189 10.082 3.40195 10.2219 3.40205 10.3618C3.40212 10.5085 3.40205 10.6551 3.402 10.8018C3.40195 11.048 3.40202 11.2943 3.40217 11.5406C3.40234 11.825 3.40228 12.1094 3.40211 12.3938C3.40197 12.6382 3.40195 12.8827 3.40203 13.1272C3.40208 13.2731 3.40209 13.419 3.40198 13.5649C3.40189 13.7021 3.40196 13.8393 3.40214 13.9765C3.40218 14.0267 3.40217 14.0769 3.4021 14.1272C3.40201 14.196 3.40212 14.2648 3.40227 14.3336C3.40229 14.372 3.4023 14.4104 3.40231 14.45C3.4066 14.573 3.42058 14.6909 3.43749 14.8127C3.17098 14.8141 2.90447 14.8152 2.63795 14.8159C2.51416 14.8162 2.39037 14.8167 2.26658 14.8174C2.14683 14.8181 2.02708 14.8184 1.90733 14.8186C1.86193 14.8187 1.81654 14.8189 1.77115 14.8193C1.41044 14.8219 1.06085 14.8165 0.736321 14.6447C0.683208 14.6173 0.683208 14.6173 0.629021 14.5893C0.317992 14.4052 0.114384 14.1007 0.0144865 13.7546C-0.000457776 13.6856 -0.00419647 13.6242 -0.00460605 13.5536C-0.00482965 13.527 -0.00505325 13.5004 -0.00528363 13.4731C-0.00536766 13.4442 -0.00545169 13.4152 -0.00553826 13.3855C-0.00574361 13.3548 -0.00594896 13.3241 -0.00616053 13.2925C-0.00677683 13.191 -0.00714171 13.0894 -0.00745324 12.9878C-0.0075806 12.953 -0.00770802 12.9182 -0.00783924 12.8824C-0.00849122 12.6978 -0.00893792 12.5133 -0.00923089 12.3288C-0.00957526 12.1392 -0.0106487 11.9496 -0.0118926 11.76C-0.0127143 11.6134 -0.0129717 11.4668 -0.0130835 11.3202C-0.0132347 11.2504 -0.0135951 11.1806 -0.0141783 11.1108C-0.0200641 10.359 0.130115 9.72459 0.669823 9.17161C1.28513 8.58758 2.00361 8.51141 2.81249 8.52361Z" fill="#727A90"/>
<path d="M14.1034 4.15421C14.5633 4.50669 14.8391 4.96615 14.9567 5.52921C15.0366 6.16257 14.8817 6.74161 14.4922 7.24796C14.1365 7.65354 13.6319 7.93178 13.0901 7.97379C12.5189 8.00357 11.9714 7.88037 11.5302 7.49888C11.0925 7.09662 10.8135 6.59562 10.7749 5.99503C10.7664 5.38738 10.9605 4.8277 11.3828 4.38272C12.1268 3.67657 13.2538 3.58037 14.1034 4.15421Z" fill="#727A90"/>
<path d="M3.0199 3.77649C3.56334 3.75981 4.08232 3.93276 4.49952 4.28467C4.923 4.68353 5.18646 5.1755 5.22571 5.76014C5.24217 6.40034 5.02137 6.93224 4.5879 7.39673C4.14546 7.82022 3.59473 7.98773 2.99402 7.97754C2.45805 7.95586 1.97621 7.71596 1.59376 7.344C1.18926 6.89931 1.00541 6.35968 1.02161 5.76404C1.05385 5.15097 1.3452 4.65438 1.79017 4.24744C2.14241 3.95529 2.56728 3.80399 3.0199 3.77649Z" fill="#727A90"/>
</g>
<defs>
<clipPath id="clip0_215_7519">
<rect width="16" height="16" fill="white"/>
</clipPath>
</defs>
</svg>
